# xmcd CD database file
#
# Track frame offsets:
#	150
#	12525
#	24350
#	34237
#	48737
#	58287
#	72675
#	84287
#	94650
#	108762
#	119437
#	132737
#	144262
#	155337
#	168212
#	180325
#	188925
#	200937
#	215250
#	226775
#
# Disc length: 3223 seconds
#
# Revision: 1
# Processed by: cddbd v1.5.2PL0 Copyright (c) Steve Scherf et al.
# Submitted via: CDex 1.50
#
DISCID=1c0c9514
DTITLE=Various Artist - Cowboy Classics (Disk 1)
DYEAR=2000
DGENRE=Country
TTITLE0=Sons Of The Pioneers - Tumbling Tumbleweeds
TTITLE1=Gene Autry - Back In The Saddle Again
TTITLE2=The Sons Of The Pioneers - Cool Water
TTITLE3=Slim Whitman - The Red River Valley
TTITLE4=Sons Of The Pioneers - Whoopee Ti-Yi-Yo (Git Along Little Dogies)
TTITLE5=Gene Autry - Take Me Back To My Boots And Saddle
TTITLE6=Slim Whitman - Down In The Valley
TTITLE7=Sons Of The Pioneers - Wagon Wheels
TTITLE8=Patsy Montana with The Prairie Ramblers - I Want To Be A Cowboy's Sweetheart
TTITLE9=Gene Autry - Be Honest With Me
TTITLE10=Roy Rogers and Dale Evins - Happy Trails
TTITLE11=Burl Ives - On Top Of Old Smokey
TTITLE12=Bing Crosby - Clementine
TTITLE13=Jimmie Davis - You Are My Sunshine
TTITLE14=Gene Autry - Buttons And Bows
TTITLE15=Tex Ritter - Big Rock Candy Mountain
TTITLE16=Gene Autry - Home On The Range
TTITLE17=Eddy Arnold - I'm Thinking Tonight Of My Blue Eyes
TTITLE18=Slim Whitman - The Cattle Call
TTITLE19=Weavers - So Long (It's Been Good To Know Yuh)
EXTD=Cowboy Classics. - Cool Water YEAR: 2000
EXTT0=
EXTT1=
EXTT2=
EXTT3=
EXTT4=
EXTT5=
EXTT6=
EXTT7=
EXTT8=
EXTT9=
EXTT10=
EXTT11=
EXTT12=
EXTT13=
EXTT14=
EXTT15=
EXTT16=
EXTT17=
EXTT18=
EXTT19=
PLAYORDER=
